# xmcd
#
# Track frame offsets: 
#        150
#        12886
#        23903
#        35216
#        48321
#        57996
#        72585
#        84578
#        102005
#        115965
#        128455
#        141299
#        150454
#        173237
#
# Disc length: 2442 seconds
#
# Revision: 0
# Processed by: cddbd v1.5.2PL0 Copyright (c) Steve Scherf et al.
# Submitted via: ExactAudioCopy v0.90b4
#
DISCID=b909880e
DTITLE=Freddy Fender - An Introduction To
DYEAR=2006
DGENRE=American Roots
TTITLE0=Wasted Days And Wasted Nights - (original version)
TTITLE1=Chokin' Kind, The
TTITLE2=It's Raining
TTITLE3=In The Still Of The Night
TTITLE4=My Tears Are Falling Tonight
TTITLE5=Roses Are Red
TTITLE6=Crazy Baby
TTITLE7=Leave A Light In The Window
TTITLE8=I Don't Want To Be Lonely
TTITLE9=Vaya Con Dias
TTITLE10=Going Out With The Tide - (featuring Tommy McClain)
TTITLE11=Breaking Up Is Hard To Do
TTITLE12=Before The Next Teardrop Falls - (featuring Doug Sahm)
TTITLE13=Six Days On The Road
EXTD=
EXTT0=
EXTT1=
EXTT2=
EXTT3=
EXTT4=
EXTT5=
EXTT6=
EXTT7=
EXTT8=
EXTT9=
EXTT10=
EXTT11=
EXTT12=
EXTT13=
PLAYORDER=
